{
.appVersion = "3228";
.formatVersion = 3;
DisplayStrings = (
"hhkhKhih
HHAHOAOO
HHBHOBOO
obEDiEnT
over team venT
vine oVer
hhoohhooo
HHDHODOO
HHEHOEOO
HHFHOFOO
HHGHOGOO
HHIHOIOO
HHMHOMOO
HHNHONOO
HHRHOROO
HHSHOSOO
HHTHOTOO
HHUHOUOO
HHVHOVOO
HHnHOnOO
HHoHOoOO
nnanoaoo
nnbnoboo
nndnodoo
nnenoeoo
nnfnofoo
nngnogoo
nnhnohoo
nninoioo
nnmnomoo
nnnnonoo
nnrnoroo
nnsnosoo
nntnotoo
nnunouoo
nnvnovoo

clement 
through
",
"Aebraham Brunetti Detroit Evanson Fairburn Genovese Hanraets Isbister Merritt Nussbaum Osbourne Robinson Stroman Travieso Varnham Antonino Beaumont Ethanson Fontana Germano Herriot Ingesson Montana Neumann Overton Ruggeri Steensen Thomson Vonnegut Abraham Brunetti Evanson Fairburn Genovese Hanraets Isbister Merritt Nussbaum Osbourne Robinson Stroman Travieso Varnham Antonino Beaumont Ethanson Fontana Germano Herriot Ingesson Montana Neumann Overton Ruggeri Steensen Thomson Vonnegut 


Abraham Brunetti Detroit Evanson Fairburn Genovese Hanraets Isbister Merritt Nussbaum Osbourne Robinson Stroman Travieso Varnham Antonino Beaumont Ethanson Fontana Germano Herriot Ingesson Montana Neumann Overton Ruggeri Steensen Thomson Vonnegut Abraham Brunetti Evanson Fairburn Genovese Hanraets Isbister Merritt Nussbaum Osbourne Robinson Stroman Travieso Varnham Antonino Beaumont Ethanson Fontana Germano Herriot Ingesson Montana Neumann Overton Ruggeri Steensen Thomson Vonnegut


Abraham Brunetti Detroit Evanson Fairburn Genovese Hanraets Isbister Merritt Nussbaum Osbourne Robinson Stroman Travieso Varnham Antonino Beaumont Ethanson Fontana Germano Herriot Ingesson Montana Neumann Overton Ruggeri Steensen Thomson Vonnegut Abraham Brunetti Evanson Fairburn Genovese Hanraets Isbister Merritt Nussbaum Osbourne Robinson Stroman Travieso Varnham Antonino Beaumont Ethanson Fontana Germano Herriot Ingesson Montana Neumann Overton Ruggeri Steensen Thomson Vonnegut",
"hhHHhhBBhhCChhDDhh
hhEEhhFhhGhhIhhJhh
hhKhhLhhMhhNhhOhh
hhOhhPhhQhhRhhShh
hhThhUhhVhhWhhXhh
hhYhhZhh

glyphs = (
{
glyphname = A;
lastChange = "2023-12-14 01:23:19 +0000";
layers = (
{
layerId = m01;
shapes = (
{
closed = 1;
nodes = (
(70,34,o),
(155,97,o),
(161,125,cs),
(197,289,o),
(241,452,o),
(276,615,cs),
(283,649,o),
(174,547,o),
(168,521,cs),
(135,369,o),
(110,217,o),
(77,65,cs)
);
},
{
closed = 1;
nodes = (
(25,145,o),
(-32,-25,o),
(-1,3,cs),
(19,20,o),
(53,30,o),
(84,28,cs),
(109,27,o),
(131,19,o),
(144,1,cs),
(158,-19,o),
(221,151,o),
(208,169,cs),
(193,190,o),
(164,200,o),
(133,199,cs),
(103,198,o),
(72,187,o),
(49,167,cs)
);
},
{
closed = 1;
nodes = (
(81,407,o),
(24,237,o),
(34,237,cs),
(63,237,o),
(92,237,o),
(121,237,c),
(124,236,o),
(132,244,o),
(136,243,c),
(193,243,o),
(249,242,o),
(305,242,c),
(313,244,o),
(322,237,o),
(330,238,c),
(365,238,o),
(401,238,o),
(437,238,cs),
(449,238,o),
(509,408,o),
(497,408,cs),
(462,408,o),
(426,408,o),
(390,408,c),
(379,405,o),
(370,394,o),
(359,392,c),
(305,391,o),
(251,390,o),
(198,389,c),
(191,392,o),
(189,404,o),
(181,407,c),
(152,407,o),
(123,407,o),
(94,407,cs)
);
},
{
closed = 1;
nodes = (
(386,719,o),
(244,615,o),
(276,615,cs),
(295,615,o),
(279,215,o),
(284,62,cs),
(286,6,o),
(307,-9,o),
(351,4,cs),
(386,14,o),
(507,143,o),
(467,132,cs),
(435,123,o),
(415,132,o),
(414,184,cs),
(409,327,o),
(448,719,o),
(412,719,cs)
);
},
{
closed = 1;
nodes = (
(231,595,o),
(227,503,o),
(237,511,cs),
(266,534,o),
(295,557,o),
(324,580,cs),
(333,587,o),
(339,681,o),
(328,672,cs),
(299,649,o),
(270,626,o),
(241,603,cs)
);
}
);
width = 534;
}
);
unicode = 65;
},
{
glyphname = B;
lastChange = "2023-12-14 09:11:29 +0000";
layers = (
{
layerId = m01;
shapes = (
{
closed = 1;
nodes = (
(291,-3,o),
(414,143,o),
(391,147,cs),
(171,188,o),
(81,195,o),
(42,168,cs),
(19,152,o),
(-40,-19,o),
(-12,0,cs),
(-5,5,o),
(73,38,o),
(271,1,cs)
);
},
{
closed = 1;
nodes = (
(172,636,o),
(81,569,o),
(74,529,cs),
(56,425,o),
(29,118,o),
(27,106,cs),
(23,66,o),
(111,135,o),
(115,172,cs),
(115,172,o),
(148,501,o),
(164,591,cs)
);
},
{
closed = 1;
nodes = (
(187,256,o),
(250,244,o),
(316,326,cs),
(459,502,o),
(449,610,o),
(381,666,cs),
(320,718,o),
(211,727,o),
(129,705,cs),
(106,699,o),
(14,543,o),
(43,551,cs),
(161,582,o),
(252,560,o),
(287,508,cs),
(315,466,o),
(309,406,o),
(254,338,cs)
);
},
{
closed = 1;
nodes = (
(107,484,o),
(45,315,o),
(64,309,cs),
(138,286,o),
(192,267,o),
(233,250,cs),
(373,193,o),
(343,166,o),
(315,132,cs),
(238,40,o),
(280,-5,o),
(361,92,cs),
(536,301,o),
(469,367,o),
(317,420,cs),
(262,439,o),
(196,457,o),
(126,479,cs)
);
}
);
width = 505;
}
);
unicode = 66;
},
{
glyphname = C;
lastChange = "2023-12-14 09:06:29 +0000";
layers = (
{
guides = (
{
pos = (692,541);
}
);
layerId = m01;
shapes = (
{
closed = 1;
nodes = (
(414,662,o),
(284,596,o),
(233,543,cs),
(187,495,o),
(150,451,o),
(120,409,cs),
(13,260,o),
(3,149,o),
(37,78,cs),
(89,-30,o),
(247,-46,o),
(332,35,cs),
(365,66,o),
(441,249,o),
(404,213,cs),
(327,140,o),
(201,138,o),
(167,219,cs),
(139,287,o),
(175,414,o),
(361,607,cs)
);
},
{
closed = 1;
nodes = (
(413,593,o),
(466,761,o),
(434,727,cs),
(421,714,o),
(382,706,o),
(341,706,cs),
(305,707,o),
(269,714,o),
(250,732,cs),
(234,747,o),
(170,579,o),
(186,564,cs),
(205,547,o),
(240,537,o),
(277,536,cs),
(321,535,o),
(366,544,o),
(386,565,cs)
);
}
);
width = 474;
}
);
unicode = 67;
},
{
glyphname = D;
lastChange = "2023-12-14 09:05:37 +0000";
layers = (
{
layerId = m01;
shapes = (
{
closed = 1;
nodes = (
(96,725,o),
(32,554,o),
(50,545,cs),
(193,480,o),
(275,407,o),
(317,337,cs),
(370,251,o),
(361,169,o),
(328,115,cs),
(286,46,o),
(342,39,o),
(386,111,cs),
(467,243,o),
(471,366,o),
(413,473,cs),
(360,568,o),
(257,652,o),
(114,717,cs)
);
},
{
closed = 1;
nodes = (
(45,48,o),
(125,43,o),
(128,95,cs),
(139,309,o),
(170,614,o),
(150,641,cs),
(119,680,o),
(53,634,o),
(86,591,cs),
(87,591,o),
(61,358,o),
(48,99,cs)
);
},
{
closed = 1;
nodes = (
(304,-4,o),
(423,146,o),
(383,150,cs),
(160,174,o),
(110,202,o),
(65,167,cs),
(41,148,o),
(-16,-22,o),
(13,1,cs),
(26,12,o),
(64,22,o),
(271,0,cs)
);
}
);
width = 512;
}
);
unicode = 68;
},
{
glyphname = E;
lastChange = "2023-12-14 09:05:49 +0000";
layers = (
{
layerId = m01;
shapes = (
{
closed = 1;
nodes = (
(180,664,o),
(96,602,o),
(93,575,cs),
(74,390,o),
(57,200,o),
(39,29,cs),
(34,-15,o),
(55,0,o),
(63,6,cs),
(90,30,o),
(121,35,o),
(170,19,cs),
(238,-2,o),
(329,-18,o),
(379,25,cs),
(402,44,o),
(448,218,o),
(421,195,cs),
(385,166,o),
(294,169,o),
(232,189,cs),
(181,205,o),
(154,206,o),
(99,160,c),
(107,152,o),
(115,144,o),
(123,137,c),
(141,314,o),
(160,472,o),
(177,635,cs)
);
},
{
closed = 1;
nodes = (
(68,438,o),
(8,268,o),
(29,268,cs),
(137,269,o),
(245,269,o),
(352,269,cs),
(372,269,o),
(434,439,o),
(412,439,cs),
(304,438,o),
(196,438,o),
(89,438,cs)
);
},
{
closed = 1;
nodes = (
(440,549,o),
(487,723,o),
(460,703,cs),
(411,667,o),
(170,739,o),
(98,681,cs),
(75,662,o),
(31,491,o),
(56,511,cs),
(120,563,o),
(361,491,o),
(418,533,cs)
);
}
);
width = 498;
}
);
unicode = 69;
},
{
glyphname = F;
lastChange = "2023-12-14 01:23:19 +0000";
layers = (
{
layerId = m01;
shapes = (
{
closed = 1;
nodes = (
(183,673,o),
(101,602,o),
(98,574,cs),
(81,405,o),
(65,236,o),
(48,68,cs),
(45,36,o),
(127,110,o),
(130,136,cs),
(147,305,o),
(163,474,o),
(180,642,cs)
);
},
{
closed = 1;
nodes = (
(440,561,o),
(483,733,o),
(454,705,cs),
(419,672,o),
(165,715,o),
(114,690,cs),
(91,678,o),
(37,508,o),
(62,520,cs),
(109,545,o),
(367,492,o),
(414,537,cs)
);
},
{
closed = 1;
nodes = (
(367,285,o),
(415,459,o),
(389,444,cs),
(353,424,o),
(130,457,o),
(86,431,cs),
(63,418,o),
(18,245,o),
(42,259,cs),
(80,281,o),
(303,248,o),
(345,272,cs)
);
},
{
closed = 1;
nodes = (
(24,143,o),
(-32,-27,o),
(-1,2,cs),
(20,21,o),
(57,31,o),
(91,27,cs),
(112,24,o),
(132,16,o),
(144,0,cs),
(159,-19,o),
(221,150,o),
(208,168,cs),
(191,189,o),
(160,199,o),
(128,198,cs),
(99,196,o),
(70,185,o),
(49,166,cs)
);
}
);
width = 434;
}
);
unicode = 70;
},
{
glyphname = G;
lastChange = "2023-12-14 09:06:49 +0000";
layers = (
{
layerId = m01;
shapes = (
{
closed = 1;
nodes = (
(423,660,o),
(330,642,o),
(281,599,cs),
(133,468,o),
(51,348,o),
(20,248,cs),
(-13,143,o),
(11,60,o),
(73,9,cs),
(111,-22,o),
(170,-16,o),
(184,-16,cs),
(193,-16,o),
(372,140,o),
(404,186,cs),
(424,217,o),
(415,266,o),
(392,234,cs),
(376,209,o),
(264,116,o),
(264,116,cs),
(260,116,o),
(226,115,o),
(199,137,cs),
(151,177,o),
(129,231,o),
(142,298,cs),
(158,383,o),
(230,489,o),
(373,615,cs)
);
},
{
closed = 1;
nodes = (
(248,351,o),
(160,219,o),
(221,267,cs),
(231,276,o),
(256,281,o),
(278,273,cs),
(298,265,o),
(316,244,o),
(313,200,cs),
(310,135,o),
(301,72,o),
(294,6,cs),
(288,-58,o),
(300,-105,o),
(335,-100,cs),
(362,-97,o),
(488,33,o),
(455,28,cs),
(432,25,o),
(429,50,o),
(436,114,cs),
(442,178,o),
(451,244,o),
(455,308,cs),
(456,347,o),
(436,382,o),
(407,400,cs),
(376,419,o),
(335,421,o),
(297,391,cs)
);
},
{
closed = 1;
nodes = (
(398,593,o),
(451,761,o),
(419,727,cs),
(406,714,o),
(363,705,o),
(321,706,cs),
(287,707,o),
(253,715,o),
(235,732,cs),
(219,747,o),
(155,579,o),
(171,564,cs),
(191,546,o),
(227,537,o),
(264,536,cs),
(307,535,o),
(352,545,o),
(371,565,cs)
);
}
);
width = 525;
}
);
unicode = 71;
},
{
glyphname = H;
lastChange = "2023-12-14 01:23:19 +0000";
layers = (
{
guides = (
{
pos = (103,-2);
},
{
pos = (204,711);
},
{
pos = (1015,217);
}
);
layerId = m01;
shapes = (
{
closed = 1;
nodes = (
(84,438,o),
(23,268,o),
(44,268,cs),
(188,269,o),
(333,269,o),
(477,269,cs),
(496,269,o),
(558,439,o),
(537,439,cs),
(393,438,o),
(248,438,o),
(104,438,cs)
);
},
{
closed = 1;
nodes = (
(168,702,o),
(38,571,o),
(77,580,cs),
(86,583,o),
(97,564,o),
(92,488,cs),
(82,361,o),
(72,234,o),
(63,106,cs),
(57,39,o),
(81,-4,o),
(104,0,cs),
(134,5,o),
(261,138,o),
(226,132,cs),
(191,126,o),
(203,155,o),
(207,218,cs),
(217,345,o),
(227,472,o),
(236,600,cs),
(241,660,o),
(230,717,o),
(199,710,cs)
);
},
{
closed = 1;
nodes = (
(437,702,o),
(307,571,o),
(346,580,cs),
(355,583,o),
(366,564,o),
(361,488,cs),
(351,361,o),
(341,234,o),
(332,106,cs),
(326,39,o),
(350,-4,o),
(373,0,cs),
(403,5,o),
(530,138,o),
(495,132,cs),
(460,126,o),
(472,155,o),
(476,218,cs),
(486,345,o),
(496,472,o),
(505,600,cs),
(510,660,o),
(499,717,o),
(468,710,cs)
);
}
);
width = 581;
}
);
unicode = 72;
},
{
glyphname = I;
lastChange = "2023-12-14 01:23:19 +0000";
layers = (
{
layerId = m01;
shapes = (
{
closed = 1;
nodes = (
(156,702,o),
(26,571,o),
(65,580,cs),
(74,583,o),
(85,565,o),
(80,488,cs),
(70,361,o),
(60,234,o),
(51,106,cs),
(45,39,o),
(69,-4,o),
(92,0,cs),
(122,5,o),
(249,138,o),
(214,132,cs),
(179,126,o),
(191,155,o),
(195,218,cs),
(205,345,o),
(215,472,o),
(224,600,cs),
(229,661,o),
(218,717,o),
(187,710,cs)
);
}
);
width = 275;
}
);
unicode = 73;
},
{
glyphname = J;
lastChange = "2023-12-14 01:23:19 +0000";
layers = (
{
layerId = m01;
shapes = (
{
closed = 1;
nodes = (
(103,-23,o),
(215,118,o),
(211,141,cs),
(206,162,o),
(186,193,o),
(161,216,cs),
(136,240,o),
(107,256,o),
(82,247,cs),
(54,237,o),
(-54,93,o),
(-18,105,cs),
(0,112,o),
(28,95,o),
(52,72,cs),
(75,50,o),
(93,23,o),
(97,3,cs)
);
},
{
closed = 1;
nodes = (
(322,702,o),
(192,571,o),
(231,580,cs),
(240,583,o),
(253,563,o),
(246,488,cs),
(236,399,o),
(226,309,o),
(217,219,cs),
(203,96,o),
(201,120,o),
(199,119,cs),
(128,64,o),
(56,-40,o),
(135,21,cs),
(356,193,o),
(356,281,o),
(361,331,cs),
(371,420,o),
(381,510,o),
(390,600,cs),
(397,661,o),
(384,717,o),
(353,710,cs)
);
}
);
width = 427;
}
);
unicode = 74;
},
{
glyphname = K;
lastChange = "2023-12-14 09:05:55 +0000";
layers = (
{
layerId = m01;
shapes = (
{
closed = 1;
nodes = (
(298,485,o),
(179,349,o),
(196,339,cs),
(206,333,o),
(232,242,o),
(266,156,cs),
(301,72,o),
(343,-8,o),
(387,1,cs),
(414,6,o),
(530,144,o),
(497,137,cs),
(462,131,o),
(420,215,o),
(385,302,cs),
(352,385,o),
(324,469,o),
(314,475,cs)
);
},
{
closed = 1;
nodes = (
(134,696,o),
(10,562,o),
(54,579,cs),
(64,583,o),
(71,566,o),
(66,496,cs),
(56,370,o),
(46,244,o),
(37,118,cs),
(32,54,o),
(32,0,o),
(77,0,cs),
(103,0,o),
(234,152,o),
(201,152,cs),
(178,152,o),
(177,165,o),
(181,230,cs),
(191,356,o),
(201,482,o),
(210,608,cs),
(215,663,o),
(208,723,o),
(170,709,cs)
);
},
{
closed = 1;
nodes = (
(502,572,o),
(556,740,o),
(525,711,cs),
(507,694,o),
(476,685,o),
(446,685,cs),
(420,686,o),
(394,694,o),
(380,713,cs),
(366,731,o),
(301,564,o),
(316,545,cs),
(332,525,o),
(359,515,o),
(389,515,cs),
(420,515,o),
(452,526,o),
(475,547,cs)
);
},
{
closed = 1;
nodes = (
(509,609,o),
(402,615,o),
(385,596,cs),
(363,570,o),
(72,259,o),
(64,251,cs),
(45,230,o),
(153,226,o),
(170,243,cs),
(178,252,o),
(468,563,o),
(491,588,cs)
);
}
);
width = 564;
}
);
unicode = 75;
},
{
glyphname = L;
lastChange = "2023-12-14 09:20:35 +0000";
layers = (
{
layerId = m01;
shapes = (
{
closed = 1;
nodes = (
(48,92,o),
(-3,-43,o),
(43,11,cs),
(70,42,o),
(122,59,o),
(169,37,cs),
(210,16,o),
(273,-19,o),
(325,18,cs),
(350,36,o),
(407,206,o),
(377,184,cs),
(337,155,o),
(304,170,o),
(263,189,cs),
(208,217,o),
(150,210,o),
(87,137,cs)
);
},
{
closed = 1;
nodes = (
(147,703,o),
(20,575,o),
(57,583,cs),
(77,587,o),
(71,561,o),
(65,490,cs),
(52,334,o),
(41,177,o),
(27,21,cs),
(24,-16,o),
(164,122,o),
(167,155,cs),
(179,303,o),
(194,450,o),
(207,598,cs),
(211,649,o),
(217,717,o),
(177,709,cs)
);
}
);
width = 426;
}
);
unicode = 76;
},
{
glyphname = M;
lastChange = "2023-12-14 09:06:56 +0000";
layers = (
{
layerId = m01;
shapes = (
{
closed = 1;
nodes = (
(254,730,o),
(126,605,o),
(137,587,cs),
(170,535,o),
(195,413,o),
(217,293,cs),
(242,158,o),
(265,25,o),
(294,-2,cs),
(308,-15,o),
(435,111,o),
(420,124,cs),
(393,149,o),
(371,283,o),
(345,420,cs),
(323,539,o),
(298,660,o),
(265,713,cs)
);
},
{
closed = 1;
nodes = (
(19,62,o),
(119,114,o),
(127,138,cs),
(150,207,o),
(167,279,o),
(179,348,cs),
(208,514,o),
(209,656,o),
(209,657,cs),
(211,683,o),
(128,605,o),
(127,583,cs),
(126,577,o),
(120,488,o),
(98,367,cs),
(83,285,o),
(61,188,o),
(29,92,cs)
);
},
{
closed = 1;
nodes = (
(287,128,o),
(388,164,o),
(396,186,cs),
(410,220,o),
(423,254,o),
(434,287,cs),
(498,468,o),
(534,623,o),
(536,640,cs),
(541,673,o),
(456,614,o),
(452,584,cs),
(451,578,o),
(431,518,o),
(401,430,cs),
(373,353,o),
(337,254,o),
(298,154,cs)
);
},
{
closed = 1;
nodes = (
(588,737,o),
(459,613,o),
(459,585,cs),
(461,531,o),
(461,396,o),
(469,269,cs),
(477,130,o),
(494,1,o),
(533,-1,cs),
(556,-2,o),
(679,123,o),
(651,125,cs),
(617,127,o),
(602,260,o),
(596,402,cs),
(590,524,o),
(590,651,o),
(589,707,cs)
);
},
{
closed = 1;
nodes = (
(-1,143,o),
(-57,-27,o),
(-26,2,cs),
(-6,21,o),
(33,30,o),
(68,27,cs),
(90,24,o),
(111,16,o),
(123,0,cs),
(138,-19,o),
(200,150,o),
(187,168,cs),
(171,189,o),
(139,199,o),
(106,198,cs),
(76,196,o),
(45,186,o),
(24,166,cs)
);
}
);
width = 715;
}
);
unicode = 77;
},
{
glyphname = N;
lastChange = "2023-12-14 09:06:05 +0000";
layers = (
{
layerId = m01;
shapes = (
{
closed = 1;
nodes = (
(175,728,o),
(54,609,o),
(64,591,cs),
(107,513,o),
(152,406,o),
(199,301,cs),
(250,184,o),
(304,69,o),
(358,2,cs),
(370,-13,o),
(491,107,o),
(478,122,cs),
(422,191,o),
(366,315,o),
(312,439,cs),
(268,538,o),
(226,637,o),
(186,709,cs)
);
},
{
closed = 1;
nodes = (
(-11,145,o),
(-67,-25,o),
(-36,4,cs),
(-16,22,o),
(20,32,o),
(53,29,cs),
(75,27,o),
(96,18,o),
(109,2,cs),
(124,-17,o),
(186,152,o),
(173,170,cs),
(156,192,o),
(123,202,o),
(90,199,cs),
(62,197,o),
(34,187,o),
(14,168,cs)
);
},
{
closed = 1;
nodes = (
(530,570,o),
(584,738,o),
(553,709,cs),
(533,691,o),
(498,681,o),
(466,684,cs),
(443,686,o),
(421,694,o),
(408,711,cs),
(394,729,o),
(329,562,o),
(344,543,cs),
(359,524,o),
(386,514,o),
(415,513,cs),
(446,513,o),
(480,524,o),
(503,545,cs)
);
},
{
closed = 1;
nodes = (
(23,4,o),
(113,62,o),
(122,107,cs),
(133,167,o),
(173,635,o),
(173,636,cs),
(177,683,o),
(87,621,o),
(83,578,cs),
(81,562,o),
(44,116,o),
(32,55,cs)
);
},
{
closed = 1;
nodes = (
(348,4,o),
(438,62,o),
(447,107,cs),
(458,167,o),
(498,635,o),
(498,636,cs),
(502,683,o),
(412,621,o),
(408,578,cs),
(406,562,o),
(369,116,o),
(357,55,cs)
);
}
);
width = 557;
}
);
unicode = 78;
},
{
glyphname = O;
lastChange = "2023-12-14 09:19:51 +0000";
layers = (
{
layerId = m01;
shapes = (
{
closed = 1;
nodes = (
(115,33,o),
(97,-64,o),
(208,14,cs),
(270,58,o),
(336,123,o),
(381,202,cs),
(429,290,o),
(453,396,o),
(417,512,cs),
(397,577,o),
(359,645,o),
(295,715,cs),
(281,731,o),
(184,546,o),
(199,529,cs),
(245,478,o),
(276,432,o),
(297,392,cs),
(331,323,o),
(334,268,o),
(322,226,cs),
(298,141,o),
(217,105,o),
(216,104,cs)
);
},
{
closed = 1;
nodes = (
(280,591,o),
(340,763,o),
(273,698,cs),
(239,665,o),
(170,575,o),
(110,471,cs),
(42,352,o),
(-15,213,o),
(3,113,cs),
(14,49,o),
(57,1,o),
(146,-15,cs),
(183,-22,o),
(340,119,o),
(296,127,cs),
(212,142,o),
(167,178,o),
(147,223,cs),
(122,279,o),
(136,350,o),
(158,410,cs),
(185,481,o),
(223,536,o),
(223,536,cs)
);
}
);
width = 469;
}
);
unicode = 79;
},
{
glyphname = P;
lastChange = "2023-12-14 09:07:08 +0000";
layers = (
{
guides = (
{
pos = (113,716);
},
{
pos = (-217,587);
},
{
pos = (-226,373);
}
);
layerId = m01;
shapes = (
{
closed = 1;
nodes = (
(197,226,o),
(266,221,o),
(330,305,cs),
(443,452,o),
(457,557,o),
(419,625,cs),
(374,705,o),
(255,731,o),
(140,707,cs),
(118,702,o),
(35,564,o),
(62,569,cs),
(204,598,o),
(286,560,o),
(309,494,cs),
(328,442,o),
(311,373,o),
(260,307,cs)
);
},
{
closed = 1;
nodes = (
(266,214,o),
(383,364,o),
(334,369,cs),
(182,386,o),
(130,407,o),
(98,394,cs),
(76,386,o),
(17,216,o),
(40,226,cs),
(48,229,o),
(86,234,o),
(224,219,cs)
);
},
{
closed = 1;
nodes = (
(217,629,o),
(76,519,o),
(74,492,cs),
(66,363,o),
(58,235,o),
(49,106,cs),
(45,42,o),
(58,0,o),
(89,0,cs),
(113,0,o),
(240,130,o),
(211,130,cs),
(190,130,o),
(186,150,o),
(191,214,cs),
(199,343,o),
(207,471,o),
(216,600,cs)
);
}
);
width = 443;
}
);
unicode = 80;
},
{
glyphname = Q;
lastChange = "2023-12-14 09:07:21 +0000";
layers = (
{
layerId = m01;
shapes = (
{
closed = 1;
nodes = (
(263,335,o),
(219,290,o),
(221,273,cs),
(228,220,o),
(259,116,o),
(312,48,cs),
(347,3,o),
(391,-27,o),
(444,-13,cs),
(468,-7,o),
(541,194,o),
(514,187,cs),
(466,175,o),
(413,181,o),
(368,201,cs),
(314,224,o),
(272,267,o),
(265,319,cs)
);
},
{
closed = 1;
nodes = (
(136,33,o),
(118,-64,o),
(229,14,cs),
(350,100,o),
(484,265,o),
(450,464,cs),
(436,543,o),
(395,628,o),
(316,715,cs),
(302,731,o),
(205,546,o),
(220,529,cs),
(283,459,o),
(319,399,o),
(336,348,cs),
(395,174,o),
(239,105,o),
(237,104,cs)
);
},
{
closed = 1;
nodes = (
(301,591,o),
(361,763,o),
(294,698,cs),
(225,631,o),
(15,336,o),
(20,145,cs),
(23,65,o),
(63,4,o),
(167,-15,cs),
(204,-22,o),
(361,119,o),
(317,127,cs),
(209,147,o),
(166,201,o),
(157,264,cs),
(139,384,o),
(244,536,o),
(244,536,cs)
);
}
);
width = 580;
}
);
unicode = 81;
},
{
glyphname = R;
lastChange = "2023-12-14 09:07:33 +0000";
layers = (
{
guides = (
{
angle = 180;
pos = (332,360);
},
{
pos = (178,564);
}
);
layerId = m01;
shapes = (
{
closed = 1;
nodes = (
(174,621,o),
(103,470,o),
(105,421,cs),
(108,344,o),
(163,231,o),
(227,142,cs),
(289,54,o),
(359,-11,o),
(394,0,cs),
(414,7,o),
(476,178,o),
(452,170,cs),
(417,158,o),
(366,198,o),
(319,259,cs),
(246,353,o),
(178,495,o),
(175,575,cs)
);
},
{
closed = 1;
nodes = (
(14,143,o),
(-42,-27,o),
(-11,2,cs),
(9,21,o),
(46,30,o),
(78,27,cs),
(101,25,o),
(122,16,o),
(134,0,cs),
(149,-19,o),
(211,150,o),
(198,168,cs),
(181,189,o),
(150,199,o),
(118,198,cs),
(90,196,o),
(60,185,o),
(39,166,cs)
);
},
{
closed = 1;
nodes = (
(173,642,o),
(80,560,o),
(76,462,cs),
(68,287,o),
(74,300,o),
(54,63,cs),
(50,17,o),
(129,64,o),
(132,105,cs),
(154,358,o),
(160,373,o),
(168,540,cs)
);
},
{
closed = 1;
nodes = (
(190,257,o),
(236,226,o),
(308,308,cs),
(434,449,o),
(458,547,o),
(431,611,cs),
(388,715,o),
(209,730,o),
(111,695,cs),
(87,687,o),
(-4,530,o),
(25,541,cs),
(163,590,o),
(270,559,o),
(302,494,cs),
(323,452,o),
(313,396,o),
(260,336,cs)
);
}
);
width = 517;
}
);
unicode = 82;
},
{
glyphname = S;
lastChange = "2023-12-14 09:07:58 +0000";
layers = (
{
layerId = m01;
shapes = (
{
closed = 1;
nodes = (
(265,418,o),
(389,525,o),
(415,574,cs),
(436,616,o),
(419,680,o),
(370,705,cs),
(332,725,o),
(275,719,o),
(203,660,cs),
(134,603,o),
(93,526,o),
(169,588,cs),
(191,606,o),
(236,592,o),
(266,564,cs),
(293,539,o),
(309,504,o),
(291,470,cs)
);
},
{
closed = 1;
nodes = (
(204,663,o),
(78,551,o),
(60,509,cs),
(16,409,o),
(93,359,o),
(162,294,cs),
(227,234,o),
(302,188,o),
(260,86,cs),
(245,49,o),
(370,163,o),
(386,202,cs),
(438,326,o),
(349,356,o),
(284,416,cs),
(215,479,o),
(150,539,o),
(186,623,cs)
);
},
{
closed = 1;
nodes = (
(155,274,o),
(27,159,o),
(10,117,cs),
(-6,77,o),
(19,12,o),
(74,-9,cs),
(114,-24,o),
(169,-16,o),
(235,40,cs),
(305,99,o),
(340,171,o),
(263,106,cs),
(247,93,o),
(192,111,o),
(159,145,cs),
(136,167,o),
(123,196,o),
(136,227,cs)
);
}
);
width = 464;
}
);
unicode = 83;
},
{
glyphname = T;
lastChange = "2023-12-14 01:23:19 +0000";
layers = (
{
layerId = m01;
shapes = (
{
closed = 1;
nodes = (
(427,565,o),
(487,733,o),
(440,710,cs),
(388,685,o),
(145,739,o),
(85,686,cs),
(61,665,o),
(18,494,o),
(43,516,cs),
(93,559,o),
(320,513,o),
(388,546,cs)
);
},
{
closed = 1;
nodes = (
(347,628,o),
(296,646,o),
(263,602,cs),
(139,443,o),
(78,262,o),
(70,164,cs),
(61,53,o),
(126,-31,o),
(210,-14,cs),
(243,-7,o),
(374,106,o),
(336,98,cs),
(274,85,o),
(192,177,o),
(200,280,cs),
(205,336,o),
(229,475,o),
(311,582,cs)
);
}
);
width = 422;
}
);
unicode = 84;
},
{
glyphname = U;
lastChange = "2023-12-14 09:03:08 +0000";
layers = (
{
layerId = m01;
shapes = (
{
closed = 1;
nodes = (
(395,376,o),
(355,382,o),
(352,355,cs),
(325,114,o),
(253,124,o),
(241,124,cs),
(192,120,o),
(180,203,o),
(189,293,cs),
(200,394,o),
(209,495,o),
(219,596,cs),
(226,664,o),
(194,723,o),
(142,706,cs),
(109,695,o),
(-13,565,o),
(28,578,cs),
(72,593,o),
(79,550,o),
(75,502,cs),
(64,401,o),
(55,300,o),
(45,199,cs),
(34,96,o),
(97,-23,o),
(193,-16,cs),
(317,-6,o),
(377,220,o),
(392,351,cs)
);
},
{
closed = 1;
nodes = (
(415,-1,o),
(531,117,o),
(503,117,cs),
(461,117,o),
(463,199,o),
(472,293,cs),
(483,394,o),
(493,495,o),
(503,596,cs),
(510,664,o),
(477,723,o),
(425,706,cs),
(392,695,o),
(270,565,o),
(311,578,cs),
(355,593,o),
(364,550,o),
(359,502,cs),
(348,401,o),
(338,300,o),
(328,199,cs),
(316,88,o),
(338,-1,o),
(391,-1,cs)
);
}
);
width = 567;
}
);
unicode = 85;
},
{
glyphname = V;
lastChange = "2023-12-14 09:03:20 +0000";
layers = (
{
layerId = m01;
shapes = (
{
closed = 1;
nodes = (
(505,648,o),
(409,626,o),
(403,605,cs),
(344,404,o),
(253,121,o),
(239,30,cs),
(235,8,o),
(344,111,o),
(347,134,cs),
(357,195,o),
(446,446,o),
(499,625,cs)
);
},
{
closed = 1;
nodes = (
(533,572,o),
(587,740,o),
(556,711,cs),
(537,694,o),
(504,684,o),
(473,686,cs),
(448,687,o),
(425,695,o),
(411,713,cs),
(397,731,o),
(332,564,o),
(347,545,cs),
(363,525,o),
(390,515,o),
(420,515,cs),
(451,515,o),
(483,526,o),
(506,547,cs)
);
},
{
closed = 1;
nodes = (
(248,6,o),
(372,144,o),
(321,121,cs),
(314,117,o),
(287,249,o),
(261,387,cs),
(244,480,o),
(227,576,o),
(215,635,cs),
(205,689,o),
(158,721,o),
(124,711,cs),
(92,701,o),
(-31,571,o),
(8,583,cs),
(46,595,o),
(77,563,o),
(87,511,cs),
(96,459,o),
(109,372,o),
(124,283,cs),
(148,131,o),
(178,-26,o),
(203,-15,cs)
);
}
);
width = 505;
}
);
unicode = 86;
},
{
glyphname = W;
lastChange = "2023-12-14 09:20:06 +0000";
layers = (
{
layerId = m01;
shapes = (
{
closed = 1;
nodes = (
(382,-18,o),
(510,110,o),
(500,127,cs),
(470,181,o),
(460,322,o),
(448,452,cs),
(438,573,o),
(427,686,o),
(399,711,cs),
(385,724,o),
(264,605,o),
(279,591,cs),
(331,543,o),
(312,110,o),
(372,1,cs)
);
},
{
closed = 1;
nodes = (
(682,646,o),
(577,599,o),
(568,574,cs),
(546,509,o),
(524,440,o),
(504,375,cs),
(449,194,o),
(407,34,o),
(405,26,cs),
(397,-1,o),
(512,110,o),
(519,138,cs),
(521,145,o),
(552,249,o),
(597,390,cs),
(619,459,o),
(645,538,o),
(672,618,cs)
);
},
{
closed = 1;
nodes = (
(429,637,o),
(335,597,o),
(325,571,cs),
(313,538,o),
(295,479,o),
(275,412,cs),
(231,260,o),
(181,70,o),
(180,70,cs),
(124,-1,o),
(204,57,o),
(260,126,cs),
(281,152,o),
(323,291,o),
(359,415,cs),
(385,500,o),
(407,579,o),
(419,609,cs)
);
},
{
closed = 1;
nodes = (
(128,-19,o),
(256,109,o),
(249,128,cs),
(225,195,o),
(220,322,o),
(213,441,cs),
(204,592,o),
(191,729,o),
(126,709,cs),
(94,700,o),
(-21,577,o),
(18,589,cs),
(71,605,o),
(77,481,o),
(83,336,cs),
(87,217,o),
(91,84,o),
(121,2,cs)
);
},
{
closed = 1;
nodes = (
(699,573,o),
(753,742,o),
(722,712,cs),
(705,696,o),
(676,687,o),
(646,686,cs),
(617,686,o),
(588,694,o),
(573,714,cs),
(559,732,o),
(495,566,o),
(509,546,cs),
(524,526,o),
(554,516,o),
(585,516,cs),
(617,517,o),
(650,527,o),
(672,548,cs)
);
}
);
width = 701;
}
);
unicode = 87;
},
{
glyphname = X;
lastChange = "2023-12-14 01:23:19 +0000";
layers = (
{
layerId = m01;
shapes = (
{
closed = 1;
nodes = (
(483,616,o),
(374,594,o),
(358,570,cs),
(338,541,o),
(88,128,o),
(88,128,cs),
(73,102,o),
(183,127,o),
(196,149,cs),
(209,170,o),
(436,545,o),
(466,590,cs)
);
},
{
closed = 1;
nodes = (
(402,-4,o),
(508,140,o),
(472,127,cs),
(441,116,o),
(383,269,o),
(324,421,cs),
(262,578,o),
(198,734,o),
(156,713,cs),
(123,696,o),
(19,552,o),
(60,573,cs),
(91,589,o),
(151,430,o),
(212,273,cs),
(272,121,o),
(333,-28,o),
(372,-15,cs)
);
},
{
closed = 1;
nodes = (
(85,-47,o),
(198,91,o),
(200,122,cs),
(201,146,o),
(187,175,o),
(168,200,cs),
(149,225,o),
(125,245,o),
(106,250,cs),
(88,255,o),
(-24,113,o),
(-2,108,cs),
(10,104,o),
(33,83,o),
(53,58,cs),
(72,34,o),
(87,7,o),
(86,-12,cs)
);
},
{
closed = 1;
nodes = (
(454,448,o),
(565,591,o),
(543,596,cs),
(527,601,o),
(500,626,o),
(481,654,cs),
(465,676,o),
(454,699,o),
(455,716,cs),
(456,749,o),
(343,616,o),
(341,582,cs),
(340,561,o),
(352,536,o),
(367,514,cs),
(388,484,o),
(417,458,o),
(435,454,cs)
);
}
);
width = 541;
}
);
unicode = 88;
},
{
glyphname = Y;
lastChange = "2023-12-14 01:23:19 +0000";
layers = (
{
layerId = m01;
shapes = (
{
closed = 1;
nodes = (
(530,703,o),
(415,647,o),
(394,579,cs),
(390,566,o),
(159,112,o),
(151,98,cs),
(112,21,o),
(217,52,o),
(255,126,cs),
(257,130,o),
(495,592,o),
(508,631,cs)
);
},
{
closed = 1;
nodes = (
(531,572,o),
(585,740,o),
(554,711,cs),
(534,693,o),
(499,683,o),
(467,686,cs),
(443,688,o),
(422,696,o),
(409,713,cs),
(395,731,o),
(330,564,o),
(345,545,cs),
(359,527,o),
(383,517,o),
(409,516,cs),
(443,513,o),
(479,524,o),
(504,547,cs)
);
},
{
closed = 1;
nodes = (
(272,336,o),
(381,461,o),
(327,433,cs),
(302,420,o),
(278,481,o),
(252,550,cs),
(221,633,o),
(187,725,o),
(147,709,cs),
(111,695,o),
(-9,565,o),
(35,583,cs),
(68,596,o),
(96,486,o),
(131,401,cs),
(157,339,o),
(186,291,o),
(225,311,cs)
);
},
{
closed = 1;
nodes = (
(114,143,o),
(58,-27,o),
(89,2,cs),
(108,20,o),
(142,29,o),
(173,27,cs),
(198,26,o),
(221,18,o),
(234,0,cs),
(249,-19,o),
(311,150,o),
(298,168,cs),
(284,186,o),
(260,196,o),
(234,197,cs),
(201,200,o),
(164,189,o),
(139,166,cs)
);
}
);
width = 513;
}
);
unicode = 89;
},
{
glyphname = Z;
lastChange = "2023-12-14 01:23:19 +0000";
layers = (
{
layerId = m01;
shapes = (
{
closed = 1;
nodes = (
(22,122,o),
(-25,-40,o),
(30,6,cs),
(66,38,o),
(119,26,o),
(175,13,cs),
(238,-1,o),
(304,-17,o),
(354,25,cs),
(377,44,o),
(423,218,o),
(396,195,cs),
(350,156,o),
(294,175,o),
(234,188,cs),
(180,200,o),
(122,207,o),
(66,160,cs)
);
},
{
closed = 1;
nodes = (
(97,657,o),
(42,487,o),
(76,524,cs),
(101,551,o),
(159,544,o),
(225,537,cs),
(282,531,o),
(346,525,o),
(399,540,cs),
(420,546,o),
(481,717,o),
(457,710,cs),
(405,695,o),
(345,702,o),
(289,709,cs),
(221,717,o),
(159,723,o),
(124,686,cs)
);
},
{
closed = 1;
nodes = (
(433,604,o),
(335,590,o),
(326,568,cs),
(268,426,o),
(81,211,o),
(46,100,cs),
(39,78,o),
(138,94,o),
(144,114,cs),
(177,219,o),
(364,434,o),
(424,582,cs)
);
},
{
closed = 1;
nodes = (
(135,444,o),
(76,273,o),
(104,292,cs),
(123,305,o),
(159,292,o),
(197,276,cs),
(239,259,o),
(284,240,o),
(312,252,cs),
(334,261,o),
(394,431,o),
(368,420,cs),
(350,413,o),
(322,422,o),
(293,434,cs),
(244,453,o),
(189,481,o),
(158,460,cs)
);
}
);
width = 467;
}
);
unicode = 90;
},
{
glyphname = a;
lastChange = "2023-12-14 08:31:48 +0000";
layers = (
{
background = {
shapes = (
{
closed = 1;
nodes = (
);
}
);
};
layerId = m01;
shapes = (
{
closed = 1;
nodes = (
(299,-6,o),
(440,134,o),
(412,140,cs),
(388,145,o),
(398,236,o),
(411,428,cs),
(415,484,o),
(419,508,o),
(425,579,cs),
(428,613,o),
(420,661,o),
(397,689,cs),
(361,733,o),
(289,732,o),
(165,571,cs),
(99,486,o),
(145,481,o),
(213,569,cs),
(214,570,o),
(246,575,o),
(266,543,cs),
(276,524,o),
(284,494,o),
(279,445,cs),
(273,372,o),
(271,350,o),
(267,292,cs),
(252,87,o),
(238,8,o),
(276,0,cs)
);
},
{
closed = 1;
nodes = (
(54,398,o),
(-7,228,o),
(14,228,cs),
(146,229,o),
(279,229,o),
(411,229,cs),
(430,229,o),
(492,399,o),
(471,399,cs),
(339,398,o),
(206,398,o),
(74,398,cs)
);
},
{
closed = 1;
nodes = (
(261,667,o),
(167,592,o),
(132,526,cs),
(117,498,o),
(100,454,o),
(93,407,cs),
(78,308,o),
(63,154,o),
(45,18,cs),
(39,-32,o),
(131,35,o),
(137,78,cs),
(155,224,o),
(172,385,o),
(187,489,cs),
(194,536,o),
(221,592,o),
(222,594,cs)
);
}
);
width = 515;
}
);
unicode = 97;
},
{
glyphname = b;
lastChange = "2023-12-14 08:38:09 +0000";
layers = (
{
guides = (
{
pos = (308,715);
}
);
layerId = m01;
shapes = (
{
closed = 1;
nodes = (
(44,207,o),
(57,101,o),
(77,184,cs),
(97,268,o),
(210,314,o),
(292,299,cs),
(358,287,o),
(403,236,o),
(365,133,cs),
(343,76,o),
(453,196,o),
(473,249,cs),
(503,328,o),
(483,386,o),
(439,422,cs),
(387,464,o),
(300,474,o),
(223,449,cs),
(149,425,o),
(83,369,o),
(61,278,cs)
);
},
{
closed = 1;
nodes = (
(157,376,o),
(148,285,o),
(229,345,cs),
(453,510,o),
(466,641,o),
(401,692,cs),
(357,727,o),
(277,726,o),
(203,675,cs),
(148,637,o),
(96,571,o),
(64,473,cs),
(30,364,o),
(108,342,o),
(144,455,cs),
(157,498,o),
(187,526,o),
(219,542,cs),
(254,560,o),
(291,561,o),
(306,546,cs),
(323,528,o),
(311,489,o),
(231,431,cs)
);
},
{
closed = 1;
nodes = (
(156,497,o),
(80,521,o),
(65,469,cs),
(40,378,o),
(31,219,o),
(31,145,cs),
(31,92,o),
(117,99,o),
(117,153,cs),
(117,213,o),
(122,372,o),
(143,449,cs)
);
},
{
closed = 1;
nodes = (
(500,334,o),
(475,354,o),
(441,257,cs),
(411,173,o),
(310,141,o),
(232,152,cs),
(158,163,o),
(104,212,o),
(148,295,cs),
(186,368,o),
(89,277,o),
(50,203,cs),
(-9,92,o),
(69,-5,o),
(176,-13,cs),
(274,-21,o),
(396,45,o),
(465,237,cs)
);
}
);
width = 517;
}
);
unicode = 98;
},
{
glyphname = c;
lastChange = "2023-12-14 08:34:17 +0000";
layers = (
{
guides = (
{
pos = (324,715);
}
);
layerId = m01;
shapes = (
{
closed = 1;
nodes = (
(286,642,o),
(218,636,o),
(151,545,cs),
(27,377,o),
(9,204,o),
(50,95,cs),
(75,28,o),
(123,-14,o),
(182,-16,cs),
(236,-18,o),
(300,14,o),
(366,91,cs),
(442,179,o),
(451,282,o),
(368,185,cs),
(294,99,o),
(207,157,o),
(172,263,cs),
(145,345,o),
(150,457,o),
(219,551,cs)
);
},
{
closed = 1;
nodes = (
(343,483,o),
(470,610,o),
(461,628,cs),
(450,649,o),
(427,696,o),
(386,711,cs),
(353,722,o),
(309,713,o),
(249,652,cs),
(179,582,o),
(141,482,o),
(217,560,cs),
(234,577,o),
(261,573,o),
(286,556,cs),
(304,544,o),
(321,525,o),
(333,502,cs)
);
}
);
width = 471;
}
);
unicode = 99;
},
{
glyphname = d;
lastChange = "2023-12-14 08:36:51 +0000";
layers = (
{
guides = (
{
pos = (295,715);
}
);
layerId = m01;
shapes = (
{
closed = 1;
nodes = (
(124,725,o),
(47,562,o),
(65,553,cs),
(163,499,o),
(229,443,o),
(273,393,cs),
(356,298,o),
(361,222,o),
(356,213,cs),
(306,111,o),
(378,121,o),
(428,223,cs),
(483,335,o),
(469,430,o),
(404,515,cs),
(349,586,o),
(258,651,o),
(141,715,cs)
);
},
{
closed = 1;
nodes = (
(171,592,o),
(89,567,o),
(87,546,cs),
(73,394,o),
(60,242,o),
(47,90,cs),
(45,68,o),
(127,94,o),
(129,114,cs),
(143,266,o),
(156,418,o),
(169,570,cs)
);
},
{
closed = 1;
nodes = (
(48,232,o),
(-14,48,o),
(3,37,cs),
(48,7,o),
(104,-22,o),
(168,-15,cs),
(235,-7,o),
(309,41,o),
(385,152,cs),
(441,232,o),
(404,281,o),
(347,198,cs),
(331,176,o),
(301,161,o),
(262,158,cs),
(210,154,o),
(141,171,o),
(65,221,cs)
);
}
);
width = 497;
}
);
unicode = 100;
},
{
glyphname = e;
lastChange = "2023-12-14 08:47:09 +0000";
layers = (
{
guides = (
{
pos = (306,715);
}
);
layerId = m01;
shapes = (
{
closed = 1;
nodes = (
(311,455,o),
(438,583,o),
(431,602,cs),
(393,705,o),
(318,730,o),
(267,706,cs),
(190,670,o),
(141,587,o),
(109,490,cs),
(51,318,o),
(45,104,o),
(33,41,cs),
(22,-16,o),
(42,-1,o),
(44,0,cs),
(89,15,o),
(121,23,o),
(171,14,cs),
(231,4,o),
(312,-27,o),
(377,26,cs),
(419,61,o),
(460,227,o),
(409,186,cs),
(386,167,o),
(287,174,o),
(231,184,cs),
(187,191,o),
(151,193,o),
(106,176,c),
(109,163,o),
(113,149,o),
(117,135,c),
(146,285,o),
(164,399,o),
(181,471,cs),
(192,519,o),
(203,548,o),
(217,554,cs),
(243,566,o),
(267,572,o),
(303,476,cs)
);
},
{
closed = 1;
nodes = (
(63,438,o),
(3,268,o),
(24,268,cs),
(132,269,o),
(240,269,o),
(347,269,cs),
(367,269,o),
(429,439,o),
(407,439,cs),
(299,438,o),
(191,438,o),
(84,438,cs)
);
}
);
width = 483;
}
);
unicode = 101;
},
{
glyphname = f;
lastChange = "2023-12-14 01:23:19 +0000";
layers = (
{
layerId = m01;
shapes = (
{
closed = 1;
nodes = (
(443,604,o),
(479,759,o),
(435,701,cs),
(414,674,o),
(351,659,o),
(309,659,cs),
(254,659,o),
(192,681,o),
(159,710,cs),
(129,738,o),
(80,578,o),
(80,574,cs),
(61,380,o),
(38,195,o),
(20,14,cs),
(17,-11,o),
(49,-2,o),
(76,19,cs),
(94,33,o),
(110,53,o),
(112,69,cs),
(132,277,o),
(145,484,o),
(164,684,c),
(138,638,o),
(111,593,o),
(85,548,c),
(124,511,o),
(192,489,o),
(249,489,cs),
(303,489,o),
(352,486,o),
(403,553,cs)
);
},
{
closed = 1;
nodes = (
(343,226,o),
(393,399,o),
(372,400,cs),
(274,400,o),
(175,401,o),
(77,402,cs),
(58,402,o),
(8,229,o),
(29,228,cs),
(127,228,o),
(226,227,o),
(324,226,cs)
);
}
);
width = 431;
}
);
unicode = 102;
},
{
glyphname = g;
lastChange = "2023-12-14 08:47:37 +0000";
layers = (
{
layerId = m01;
shapes = (
{
closed = 1;
nodes = (
(271,641,o),
(207,632,o),
(139,541,cs),
(12,373,o),
(-10,201,o),
(25,93,cs),
(46,29,o),
(87,-12,o),
(139,-14,cs),
(188,-17,o),
(247,16,o),
(306,95,cs),
(384,200,o),
(395,284,o),
(314,175,cs),
(266,111,o),
(194,158,o),
(159,248,cs),
(127,330,o),
(126,448,o),
(203,551,cs)
);
},
{
closed = 1;
nodes = (
(269,350,o),
(181,218,o),
(242,266,cs),
(255,277,o),
(288,286,o),
(311,272,cs),
(326,262,o),
(337,243,o),
(334,209,cs),
(332,168,o),
(324,126,o),
(319,85,cs),
(311,14,o),
(335,-5,o),
(343,-14,cs),
(356,-29,o),
(484,98,o),
(471,112,cs),
(465,119,o),
(453,128,o),
(461,193,cs),
(465,234,o),
(473,275,o),
(476,317,cs),
(477,346,o),
(467,372,o),
(449,389,cs),
(418,420,o),
(365,427,o),
(318,390,cs)
);
},
{
closed = 1;
nodes = (
(354,482,o),
(481,609,o),
(471,626,cs),
(456,651,o),
(424,705,o),
(370,712,cs),
(338,716,o),
(298,704,o),
(249,659,cs),
(185,601,o),
(126,482,o),
(199,549,cs),
(251,596,o),
(313,551,o),
(343,500,cs)
);
}
);
width = 526;
}
);
unicode = 103;
},
{
glyphname = h;
lastChange = "2023-12-14 01:23:19 +0000";
layers = (
{
layerId = m01;
shapes = (
{
closed = 1;
nodes = (
(84,437,o),
(23,267,o),
(44,267,cs),
(188,268,o),
(333,268,o),
(477,268,cs),
(496,268,o),
(558,438,o),
(537,438,cs),
(393,437,o),
(248,437,o),
(104,437,cs)
);
},
{
closed = 1;
nodes = (
(205,726,o),
(75,603,o),
(85,584,cs),
(102,552,o),
(103,548,o),
(98,500,cs),
(87,369,o),
(79,237,o),
(69,106,cs),
(64,39,o),
(78,20,o),
(107,0,cs),
(123,-11,o),
(250,116,o),
(233,128,cs),
(210,144,o),
(206,153,o),
(211,214,cs),
(221,345,o),
(228,477,o),
(240,608,cs),
(244,662,o),
(234,674,o),
(215,708,cs)
);
},
{
closed = 1;
nodes = (
(473,726,o),
(343,603,o),
(353,584,cs),
(370,553,o),
(370,548,o),
(366,500,cs),
(356,369,o),
(347,237,o),
(337,106,cs),
(332,39,o),
(346,20,o),
(375,0,cs),
(391,-11,o),
(518,116,o),
(501,128,cs),
(478,144,o),
(474,153,o),
(479,214,cs),
(489,345,o),
(498,477,o),
(508,608,cs),
(512,662,o),
(502,673,o),
(483,708,cs)
);
}
);
width = 581;
}
);
unicode = 104;
},
{
glyphname = i;
lastChange = "2023-12-14 01:23:19 +0000";
layers = (
{
layerId = m01;
shapes = (
{
closed = 1;
nodes = (
(187,726,o),
(57,603,o),
(67,584,cs),
(84,553,o),
(85,548,o),
(80,490,cs),
(70,362,o),
(61,234,o),
(51,106,cs),
(46,39,o),
(60,20,o),
(89,0,cs),
(105,-11,o),
(232,116,o),
(215,128,cs),
(192,144,o),
(188,153,o),
(193,214,cs),
(202,342,o),
(211,470,o),
(222,598,cs),
(227,662,o),
(216,673,o),
(197,708,cs)
);
}
);
width = 273;
}
);
unicode = 105;
},
{
glyphname = j;
lastChange = "2023-12-14 08:48:00 +0000";
layers = (
{
layerId = m01;
shapes = (
{
closed = 1;
nodes = (
(149,307,o),
(20,198,o),
(-2,153,cs),
(-34,88,o),
(-3,18,o),
(55,-7,cs),
(107,-29,o),
(182,-14,o),
(254,77,cs),
(303,141,o),
(308,230,o),
(254,161,cs),
(223,121,o),
(173,116,o),
(140,136,cs),
(110,156,o),
(95,198,o),
(124,257,cs)
);
},
{
closed = 1;
nodes = (
(435,741,o),
(299,652,o),
(274,597,cs),
(263,572,o),
(263,566,o),
(257,506,cs),
(247,379,o),
(239,253,o),
(229,126,cs),
(221,13,o),
(279,132,o),
(278,131,cs),
(226,99,o),
(123,-24,o),
(186,15,cs),
(271,67,o),
(368,203,o),
(371,234,cs),
(380,361,o),
(388,488,o),
(399,614,cs),
(404,676,o),
(405,674,o),
(410,685,cs)
);
},
{
closed = 1;
nodes = (
(354,618,o),
(419,727,o),
(366,685,cs),
(336,661,o),
(299,658,o),
(266,665,cs),
(228,673,o),
(195,694,o),
(187,713,cs),
(178,735,o),
(75,590,o),
(85,567,cs),
(91,550,o),
(122,532,o),
(164,530,cs),
(205,528,o),
(256,540,o),
(308,581,cs)
);
}
);
width = 443;
}
);
unicode = 106;
},
{
glyphname = k;
lastChange = "2023-12-14 08:49:00 +0000";
layers = (
{
guides = (
{
pos = (169,711);
}
);
layerId = m01;
shapes = (
{
closed = 1;
nodes = (
(206,373,o),
(99,236,o),
(144,260,cs),
(210,294,o),
(262,282,o),
(298,248,cs),
(359,192,o),
(381,76,o),
(366,7,cs),
(357,-37,o),
(503,109,o),
(512,149,cs),
(525,212,o),
(498,339,o),
(422,393,cs),
(379,424,o),
(320,432,o),
(244,392,cs)
);
},
{
closed = 1;
nodes = (
(157,721,o),
(26,591,o),
(42,578,cs),
(47,575,o),
(65,551,o),
(61,496,cs),
(51,370,o),
(41,244,o),
(32,118,cs),
(26,48,o),
(33,20,o),
(69,0,cs),
(89,-11,o),
(220,140,o),
(199,152,cs),
(185,160,o),
(172,170,o),
(176,230,cs),
(186,356,o),
(196,482,o),
(205,608,cs),
(211,677,o),
(183,701,o),
(172,710,cs)
);
},
{
closed = 1;
nodes = (
(564,734,o),
(432,709,o),
(389,659,cs),
(368,636,o),
(105,291,o),
(102,288,cs),
(66,242,o),
(202,287,o),
(236,330,cs),
(248,345,o),
(495,655,o),
(517,681,cs)
);
}
);
width = 567;
}
);
unicode = 107;
},
{
glyphname = l;
lastChange = "2023-12-14 08:49:18 +0000";
layers = (
{
layerId = m01;
shapes = (
{
closed = 1;
nodes = (
(167,721,o),
(36,591,o),
(52,578,cs),
(57,575,o),
(75,551,o),
(71,496,cs),
(61,370,o),
(51,244,o),
(42,118,cs),
(37,54,o),
(37,0,o),
(82,0,cs),
(108,0,o),
(239,152,o),
(206,152,cs),
(183,152,o),
(182,165,o),
(186,230,cs),
(196,356,o),
(206,482,o),
(215,608,cs),
(221,677,o),
(193,701,o),
(182,710,cs)
);
},
{
closed = 1;
nodes = (
(151,125,o),
(75,-7,o),
(122,30,cs),
(154,56,o),
(191,59,o),
(223,52,cs),
(260,43,o),
(291,19,o),
(299,1,cs),
(308,-22,o),
(410,127,o),
(401,147,cs),
(394,166,o),
(356,193,o),
(305,196,cs),
(270,198,o),
(229,188,o),
(188,156,cs)
);
}
);
width = 422;
}
);
unicode = 108;
},
{
glyphname = m;
lastChange = "2023-12-14 08:49:54 +0000";
layers = (
{
layerId = m01;
shapes = (
{
closed = 1;
nodes = (
(221,720,o),
(91,591,o),
(107,579,cs),
(139,556,o),
(171,430,o),
(196,293,cs),
(214,190,o),
(228,80,o),
(232,3,cs),
(234,-25,o),
(365,104,o),
(364,129,cs),
(360,205,o),
(347,312,o),
(329,414,cs),
(305,555,o),
(271,685,o),
(237,709,cs)
);
},
{
closed = 1;
nodes = (
(-18,-34,o),
(80,31,o),
(92,79,cs),
(111,156,o),
(127,233,o),
(139,305,cs),
(169,488,o),
(179,633,o),
(179,634,cs),
(182,667,o),
(90,587,o),
(87,556,cs),
(86,549,o),
(78,457,o),
(57,325,cs),
(43,237,o),
(23,131,o),
(-4,21,cs)
);
},
{
closed = 1;
nodes = (
(207,55,o),
(324,127,o),
(347,174,cs),
(373,224,o),
(395,276,o),
(414,325,cs),
(480,494,o),
(511,637,o),
(511,639,cs),
(523,686,o),
(412,596,o),
(401,551,cs),
(400,546,o),
(385,493,o),
(359,414,cs),
(331,330,o),
(288,219,o),
(233,106,cs)
);
},
{
closed = 1;
nodes = (
(531,707,o),
(399,575,o),
(427,575,cs),
(444,575,o),
(444,455,o),
(446,322,cs),
(448,195,o),
(453,56,o),
(478,1,cs),
(488,-19,o),
(618,111,o),
(610,129,cs),
(587,178,o),
(581,291,o),
(579,404,cs),
(576,555,o),
(578,707,o),
(553,707,cs)
);
}
);
width = 655;
}
);
unicode = 109;
},
{
glyphname = n;
lastChange = "2023-12-14 09:03:24 +0000";
layers = (
{
layerId = m01;
shapes = (
{
closed = 1;
nodes = (
(170,719,o),
(49,600,o),
(59,582,cs),
(109,492,o),
(169,353,o),
(229,231,cs),
(279,131,o),
(330,42,o),
(377,0,cs),
(391,-13,o),
(512,107,o),
(497,120,cs),
(464,149,o),
(473,149,o),
(509,595,cs),
(514,655,o),
(503,666,o),
(485,698,cs),
(475,716,o),
(351,606,o),
(361,588,cs),
(379,559,o),
(380,555,o),
(375,496,cs),
(339,39,o),
(336,37,o),
(377,0,cs),
(391,-13,o),
(512,107,o),
(497,120,cs),
(444,167,o),
(385,277,o),
(329,394,cs),
(276,504,o),
(225,621,o),
(181,700,cs)
);
},
{
closed = 1;
nodes = (
(22,-30,o),
(112,25,o),
(121,67,cs),
(132,126,o),
(172,594,o),
(172,595,cs),
(176,642,o),
(86,580,o),
(82,537,cs),
(80,521,o),
(43,75,o),
(31,18,cs)
);
}
);
width = 570;
}
);
unicode = 110;
},
{
glyphname = o;
lastChange = "2023-12-13 22:14:52 +0000";
layers = (
{
layerId = m01;
shapes = (
{
closed = 1;
nodes = (
(265.325,659.434,o),
(172.892,617.163,o),
(118.74,529.794,cs),
(-34,283,o),
(-8,73,o),
(85,5,cs),
(131,-29,o),
(195,-26,o),
(260.379,26.807,cs),
(321.035,75.811,o),
(404.087,248.123,o),
(333.621,191.193,cs),
(268,138,o),
(209,151,o),
(173,201,cs),
(122,274,o),
(119,423,o),
(211.26,572.206,cs)
);
},
{
closed = 1;
nodes = (
(210.034,54.669,o),
(282.573,60,o),
(354.199,159.567,cs),
(521,392,o),
(488,596,o),
(404,678,cs),
(361,719,o),
(304,729,o),
(254.263,693.894,cs),
(192.123,650.666,o),
(79.811,485.288,o),
(155.737,538.106,cs),
(212,577,o),
(264,538,o),
(296,468,cs),
(337,379,o),
(344,241,o),
(281.801,154.433,cs)
);
}
);
width = 494;
}
);
unicode = 111;
},
{
glyphname = p;
lastChange = "2023-12-14 09:16:18 +0000";
layers = (
{
guides = (
{
pos = (707,374);
},
{
pos = (619,569);
}
);
layerId = m01;
shapes = (
{
closed = 1;
nodes = (
(147,502,o),
(62,458,o),
(50,409,cs),
(26,315,o),
(15,18,o),
(15,15,cs),
(13,-27,o),
(99,27,o),
(101,70,cs),
(102,80,o),
(113,366,o),
(134,451,cs)
);
},
{
closed = 1;
nodes = (
(109,272,o),
(172,244,o),
(251,311,cs),
(482,509,o),
(453,676,o),
(354,711,cs),
(264,742,o),
(117,667,o),
(49,414,cs),
(19,303,o),
(103,302,o),
(133,414,cs),
(171,553,o),
(251,585,o),
(284,553,cs),
(314,524,o),
(305,440,o),
(185,337,cs)
);
},
{
closed = 1;
nodes = (
(271,316,o),
(339,421,o),
(267,374,cs),
(247,361,o),
(206,362,o),
(169,373,cs),
(139,383,o),
(112,400,o),
(106,423,cs),
(97,459,o),
(29,319,o),
(38,285,cs),
(44,261,o),
(57,242,o),
(79,235,cs),
(106,226,o),
(147,235,o),
(207,274,cs)
);
}
);
width = 428;
}
);
unicode = 112;
},
{
glyphname = q;
lastChange = "2023-12-14 08:42:46 +0000";
layers = (
{
background = {
shapes = (
{
closed = 1;
nodes = (
);
},
{
closed = 1;
nodes = (
);
}
);
};
guides = (
{
pos = (298,713);
}
);
layerId = m01;
shapes = (
{
closed = 1;
nodes = (
(241,345,o),
(186,285,o),
(198,260,cs),
(211,234,o),
(352,-9,o),
(352,-9,cs),
(366,-33,o),
(421,27,o),
(408,51,cs),
(400,65,o),
(273,281,o),
(254,320,cs)
);
},
{
closed = 1;
nodes = (
(266,659,o),
(174,617,o),
(120,530,cs),
(-18,307,o),
(-10,118,o),
(58,32,cs),
(104,-27,o),
(179,-37,o),
(254,24,cs),
(307,66,o),
(402,243,o),
(342,194,cs),
(268,134,o),
(204,151,o),
(169,210,cs),
(123,286,o),
(125,431,o),
(212,572,cs)
);
},
{
closed = 1;
nodes = (
(213,42,o),
(289,82,o),
(356,176,cs),
(462,323,o),
(483,459,o),
(462,558,cs),
(434,683,o),
(337,747,o),
(257,695,cs),
(196,655,o),
(81,488,o),
(155,537,cs),
(215,576,o),
(276,523,o),
(309,438,cs),
(342,349,o),
(345,225,o),
(282,138,cs)
);
}
);
width = 489;
}
);
unicode = 113;
},
{
glyphname = r;
lastChange = "2023-12-14 09:19:37 +0000";
layers = (
{
guides = (
{
pos = (287,713);
}
);
layerId = m01;
shapes = (
{
closed = 1;
nodes = (
(60,292,o),
(26,160,o),
(78,210,cs),
(130,260,o),
(196,278,o),
(238,252,cs),
(280,226,o),
(299,157,o),
(260,34,cs),
(233,-53,o),
(385,41,o),
(412,124,cs),
(471,311,o),
(407,395,o),
(316,409,cs),
(247,420,o),
(162,390,o),
(104,334,cs)
);
},
{
closed = 1;
nodes = (
(98,272,o),
(161,244,o),
(240,311,cs),
(503,535,o),
(438,710,o),
(311,713,cs),
(220,715,o),
(99,630,o),
(40,416,cs),
(11,307,o),
(94,303,o),
(124,412,cs),
(152,517,o),
(206,563,o),
(245,566,cs),
(306,570,o),
(332,472,o),
(174,337,cs)
);
},
{
closed = 1;
nodes = (
(143,501,o),
(48,441,o),
(36,392,cs),
(13,301,o),
(10,10,o),
(10,10,cs),
(9,-36,o),
(99,32,o),
(100,72,cs),
(101,83,o),
(109,363,o),
(130,448,cs)
);
}
);
width = 485;
}
);
unicode = 114;
},
{
glyphname = s;
lastChange = "2023-12-14 08:52:30 +0000";
layers = (
{
guides = (
{
pos = (271,713);
}
);
layerId = m01;
shapes = (
{
closed = 1;
nodes = (
(50,270,o),
(-16,106,o),
(-3,80,cs),
(13,50,o),
(65,-6,o),
(132,-14,cs),
(184,-21,o),
(245,1,o),
(305,86,cs),
(478,333,o),
(380,352,o),
(275,420,cs),
(116,524,o),
(147,553,o),
(151,558,cs),
(159,569,o),
(196,570,o),
(238,554,cs),
(281,538,o),
(329,505,o),
(355,447,cs),
(366,422,o),
(429,592,o),
(419,613,cs),
(409,636,o),
(369,684,o),
(316,704,cs),
(262,724,o),
(195,716,o),
(131,626,cs),
(-26,405,o),
(47,358,o),
(151,290,cs),
(311,185,o),
(298,174,o),
(283,152,cs),
(271,135,o),
(216,135,o),
(163,158,cs),
(123,175,o),
(84,203,o),
(63,246,cs)
);
}
);
width = 445;
}
);
unicode = 115;
},
{
glyphname = t;
lastChange = "2023-12-14 08:41:39 +0000";
layers = (
{
layerId = m01;
shapes = (
{
closed = 1;
nodes = (
(430,541,o),
(498,708,o),
(456,701,cs),
(357,684,o),
(144,717,o),
(81,684,cs),
(59,672,o),
(13,500,o),
(37,512,cs),
(90,539,o),
(295,518,o),
(396,535,cs)
);
},
{
closed = 1;
nodes = (
(285,570,o),
(151,443,o),
(160,423,cs),
(173,393,o),
(112,82,o),
(145,2,cs),
(154,-18,o),
(285,113,o),
(277,132,cs),
(246,206,o),
(309,513,o),
(294,549,cs)
);
}
);
width = 439;
}
);
unicode = 116;
},
{
glyphname = u;
lastChange = "2023-12-14 08:51:52 +0000";
layers = (
{
guides = (
{
pos = (274,713);
}
);
layerId = m01;
shapes = (
{
closed = 1;
nodes = (
(162,721,o),
(26,584,o),
(48,573,cs),
(77,560,o),
(68,400,o),
(46,131,cs),
(42,83,o),
(54,34,o),
(82,6,cs),
(124,-34,o),
(198,-29,o),
(300,93,cs),
(356,161,o),
(379,244,o),
(318,171,cs),
(277,122,o),
(240,112,o),
(215,130,cs),
(191,147,o),
(177,192,o),
(182,255,cs),
(206,531,o),
(219,694,o),
(180,713,cs)
);
},
{
closed = 1;
nodes = (
(244,75,o),
(297,85,o),
(349,157,cs),
(379,199,o),
(406,260,o),
(413,301,cs),
(436,436,o),
(440,564,o),
(445,698,cs),
(446,745,o),
(355,673,o),
(353,630,cs),
(348,490,o),
(343,360,o),
(319,221,cs),
(308,154,o),
(298,150,o),
(297,149,cs)
);
}
);
width = 465;
}
);
unicode = 117;
},
{
glyphname = v;
lastChange = "2023-12-14 01:23:19 +0000";
layers = (
{
guides = (
{
pos = (278,713);
}
);
layerId = m01;
shapes = (
{
closed = 1;
nodes = (
(517,752,o),
(403,675,o),
(385,618,cs),
(327,435,o),
(221,86,o),
(208,30,cs),
(199,-7,o),
(329,116,o),
(336,148,cs),
(345,186,o),
(445,525,o),
(497,690,cs)
);
},
{
closed = 1;
nodes = (
(190,-27,o),
(323,106,o),
(308,119,cs),
(290,133,o),
(271,144,o),
(257,229,cs),
(245,304,o),
(241,428,o),
(216,599,cs),
(206,666,o),
(191,708,o),
(162,713,cs),
(143,717,o),
(14,589,o),
(38,585,cs),
(49,582,o),
(71,546,o),
(80,481,cs),
(105,316,o),
(101,194,o),
(113,123,cs),
(128,28,o),
(150,5,o),
(174,-15,cs)
);
}
);
width = 475;
}
);
unicode = 118;
},
{
glyphname = w;
lastChange = "2023-12-14 01:23:19 +0000";
layers = (
{
guides = (
{
pos = (288,713);
}
);
layerId = m01;
shapes = (
{
closed = 1;
nodes = (
(365.713,-16.955,o),
(486.251,103.084,o),
(476.577,120.467,cs),
(413.731,233.393,o),
(448.18,660.149,o),
(394.104,712.104,cs),
(380.591,725.087,o),
(259.186,606.029,o),
(273.896,591.896,cs),
(321.82,545.851,o),
(290.269,118.607,o),
(355.423,1.533,cs)
);
},
{
closed = 1;
nodes = (
(718.226,749.698,o),
(600.134,678.837,o),
(578.33,625.909,cs),
(552,563,o),
(530,502,o),
(510,444,cs),
(432,217,o),
(400,45,o),
(398.742,40.167,cs),
(391.506,8.137,o),
(501.727,124.493,o),
(509.258,157.833,cs),
(511,165,o),
(539,274,o),
(599,441,cs),
(624,514,o),
(656,598,o),
(693.67,690.091,cs)
);
},
{
closed = 1;
nodes = (
(128.713,-16.955,o),
(249.251,103.084,o),
(239.577,120.467,cs),
(210,174,o),
(202,297,o),
(195,417,cs),
(188,552,o),
(184,685,o),
(156.104,712.104,cs),
(142.681,725.259,o),
(21.324,606.176,o),
(35.896,591.896,cs),
(57,571,o),
(63,474,o),
(68,363,cs),
(75,225,o),
(82,66,o),
(118.423,1.533,cs)
);
},
{
closed = 1;
nodes = (
(421.728,640.114,o),
(326.43,611.512,o),
(317.714,588.651,cs),
(296,532,o),
(272,454,o),
(249,374,cs),
(203,214,o),
(163,48,o),
(160.737,39.298,cs),
(151.492,3.692,o),
(259.028,118.986,o),
(267.263,150.702,cs),
(269,157,o),
(299,268,o),
(337,390,cs),
(361,469,o),
(388,552,o),
(412.286,615.349,cs)
);
}
);
width = 656;
}
);
unicode = 119;
},
{
glyphname = x;
lastChange = "2023-12-14 08:53:05 +0000";
layers = (
{
guides = (
{
pos = (246,713);
}
);
layerId = m01;
shapes = (
{
closed = 1;
nodes = (
(582,742,o),
(459,711,o),
(417,649,cs),
(406,633,o),
(330,521,o),
(246,398,cs),
(130,228,o),
(0,36,o),
(0,36,cs),
(-45,-30,o),
(80,4,o),
(120,64,cs),
(120,64,o),
(202,183,o),
(292,317,cs),
(401,477,o),
(523,656,o),
(537,677,cs)
);
},
{
closed = 1;
nodes = (
(405,4,o),
(513,148,o),
(484,142,cs),
(450,137,o),
(385,294,o),
(320,445,cs),
(258,587,o),
(196,722,o),
(159,712,cs),
(133,705,o),
(24,561,o),
(55,570,cs),
(87,578,o),
(149,435,o),
(211,290,cs),
(275,143,o),
(341,-7,o),
(378,0,cs)
);
}
);
width = 527;
}
);
unicode = 120;
},
{
glyphname = y;
lastChange = "2023-12-14 01:23:19 +0000";
layers = (
{
guides = (
{
pos = (270,713);
}
);
layerId = m01;
shapes = (
{
closed = 1;
nodes = (
(600,748,o),
(490,715,o),
(441,631,cs),
(420,595,o),
(132,40,o),
(131,38,cs),
(88,-33,o),
(207,10,o),
(247,74,cs),
(260,95,o),
(528,624,o),
(551,663,cs)
);
},
{
closed = 1;
nodes = (
(283,329,o),
(398,457,o),
(350,434,cs),
(318,420,o),
(289,482,o),
(259,552,cs),
(223,634,o),
(187,726,o),
(142,711,cs),
(109,700,o),
(-13,570,o),
(28,583,cs),
(66,596,o),
(98,494,o),
(136,410,cs),
(166,344,o),
(199,290,o),
(242,310,cs)
);
}
);
width = 495;
}
);
unicode = 121;
},
{
glyphname = z;
lastChange = "2023-12-14 01:23:19 +0000";
layers = (
{
guides = (
{
pos = (199,713);
}
);
layerId = m01;
shapes = (
{
closed = 1;
nodes = (
(-5,123,o),
(-48,-45,o),
(3,-1,cs),
(47,37,o),
(112,49,o),
(174,43,cs),
(227,38,o),
(277,19,o),
(313,-8,cs),
(329,-21,o),
(391,148,o),
(375,160,cs),
(344,185,o),
(293,206,o),
(236,213,cs),
(169,221,o),
(94,208,o),
(35,157,cs)
);
},
{
closed = 1;
nodes = (
(107,736,o),
(42,569,o),
(57,550,cs),
(78,523,o),
(126,505,o),
(181,500,cs),
(250,494,o),
(329,508,o),
(379,552,cs),
(405,575,o),
(460,744,o),
(429,716,cs),
(388,680,o),
(312,666,o),
(244,671,cs),
(190,675,o),
(142,691,o),
(121,718,cs)
);
},
{
closed = 1;
nodes = (
(429,653,o),
(318,622,o),
(295,569,cs),
(269,507,o),
(211,426,o),
(153,343,cs),
(85,248,o),
(17,152,o),
(-7,82,cs),
(-25,26,o),
(88,66,o),
(105,116,cs),
(121,163,o),
(181,246,o),
(246,338,cs),
(306,423,o),
(370,517,o),
(405,597,cs)
);
}
);
width = 438;
}
);
unicode = 122;
},
{
glyphname = zero;
lastChange = "2023-12-14 09:12:32 +0000";
layers = (
{
layerId = m01;
shapes = (
{
closed = 1;
nodes = (
(462,189,o),
(512,396,o),
(483,540,cs),
(465,633,o),
(413,701,o),
(347,712,cs),
(299,720,o),
(242,698,o),
(185,634,cs),
(28,456,o),
(-12,246,o),
(21,114,cs),
(41,37,o),
(86,-13,o),
(147,-15,cs),
(183,-15,o),
(223,0,o),
(268,35,cs)
);
},
{
closed = 1;
nodes = (
(210,74,o),
(171,153,o),
(158,258,cs),
(145,365,o),
(158,499,o),
(197,542,cs),
(270,625,o),
(322,536,o),
(338,418,cs),
(352,308,o),
(335,173,o),
(274,125,cs)
);
}
);
width = 512;
}
);
unicode = 48;
},
{
glyphname = one;
lastChange = "2023-12-14 09:14:02 +0000";
layers = (
{
layerId = m01;
shapes = (
{
closed = 1;
nodes = (
(269,727,o),
(139,604,o),
(149,585,cs),
(166,554,o),
(167,549,o),
(162,491,cs),
(152,363,o),
(143,235,o),
(133,107,cs),
(128,40,o),
(142,21,o),
(171,1,cs),
(187,-10,o),
(314,117,o),
(297,129,cs),
(274,145,o),
(270,154,o),
(275,215,cs),
(284,343,o),
(293,471,o),
(304,599,cs),
(309,663,o),
(298,674,o),
(279,709,cs)
);
},
{
closed = 1;
nodes = (
(240,710,o),
(145,603,o),
(138,565,cs),
(124,493,o),
(82,414,o),
(32,374,cs),
(-12,338,o),
(74,344,o),
(114,376,cs),
(220,462,o),
(214,575,o),
(232,669,cs)
);
}
);
width = 355;
}
);
unicode = 49;
},
{
glyphname = five;
lastChange = "2023-12-14 09:14:07 +0000";
layers = (
{
layerId = m01;
shapes = (
{
closed = 1;
nodes = (
(441,604,o),
(477,759,o),
(433,701,cs),
(412,674,o),
(349,659,o),
(307,659,cs),
(252,659,o),
(190,681,o),
(157,710,cs),
(127,738,o),
(78,576,o),
(78,572,cs),
(69,455,o),
(56,350,o),
(48,240,cs),
(44,194,o),
(137,257,o),
(140,302,cs),
(150,431,o),
(153,564,o),
(162,686,c),
(136,640,o),
(109,594,o),
(83,548,c),
(122,511,o),
(190,489,o),
(247,489,cs),
(301,489,o),
(350,486,o),
(401,553,cs)
);
},
{
closed = 1;
nodes = (
(19,207,o),
(89,213,o),
(129,272,cs),
(152,306,o),
(218,335,o),
(273,332,cs),
(340,328,o),
(392,277,o),
(339,132,cs),
(319,77,o),
(430,197,o),
(449,250,cs),
(491,366,o),
(443,451,o),
(358,462,cs),
(278,473,o),
(164,420,o),
(61,268,cs)
);
},
{
closed = 1;
nodes = (
(455,267,o),
(468,375,o),
(428,296,cs),
(375,192,o),
(286,105,o),
(226,129,cs),
(199,140,o),
(179,171,o),
(168,231,cs),
(164,257,o),
(36,131,o),
(40,107,cs),
(50,48,o),
(77,11,o),
(113,-5,cs),
(198,-44,o),
(334,30,o),
(420,198,cs)
);
}
);
width = 494;
}
);
unicode = 53;
},
{
glyphname = period;
lastChange = "2023-12-14 09:17:50 +0000";
layers = (
{
layerId = m01;
shapes = (
{
closed = 1;
nodes = (
(90,157,o),
(30,-14,o),
(56,2,cs),
(70,10,o),
(127,-8,o),
(157,1,cs),
(178,8,o),
(239,178,o),
(215,171,cs),
(187,162,o),
(132,182,o),
(112,170,cs)
);
}
);
width = 275;
}
);
unicode = 46;
},
{
glyphname = comma;
lastChange = "2023-12-14 09:21:41 +0000";
layers = (
{
layerId = m01;
shapes = (
{
closed = 1;
nodes = (
(94,166,o),
(33,-4,o),
(54,-4,cs),
(106,-4,o),
(115,-54,o),
(105,-96,cs),
(92,-153,o),
(174,-76,o),
(187,-22,cs),
(205,55,o),
(176,166,o),
(114,166,cs)
);
}
);
width = 272;
}
);
unicode = 44;
},
{
glyphname = semicolon;
lastChange = "2023-12-13 22:10:21 +0000";
layers = (
{
layerId = m01;
shapes = (
{
closed = 1;
nodes = (
(253.585,469.09,o),
(193.614,298.203,o),
(220.473,314.003,cs),
(233.831,321.86,o),
(291.03,304.08,o),
(321.165,313.433,cs),
(341.844,319.85,o),
(403.345,490.174,o),
(378.835,482.567,cs),
(350.97,473.92,o),
(296.169,494.14,o),
(275.527,481.997,cs)
);
},
{
closed = 1;
nodes = (
(265.058,165.725,o),
(204.392,-3.725,o),
(224.998,-3.725,cs),
(276.733,-3.725,o),
(286.335,-54.266,o),
(276.449,-95.928,cs),
(262.854,-153.223,o),
(344.722,-76.137,o),
(357.551,-22.072,cs),
(375.823,54.931,o),
(347.229,165.725,o),
(285.002,165.725,cs)
);
}
);
width = 600;
}
);
unicode = 59;
},
{
glyphname = hyphen;
lastChange = "2023-12-13 22:10:21 +0000";
layers = (
{
layerId = m01;
shapes = (
{
closed = 1;
nodes = (
(381.226,235.155,o),
(426.428,408.629,o),
(398.23,383.636,cs),
(358.984,348.849,o),
(157.211,421.454,o),
(94.872,361.302,cs),
(71.411,338.664,o),
(26.825,165.388,o),
(55.128,192.698,cs),
(106.789,242.546,o),
(309.016,171.151,o),
(357.77,214.364,cs)
);
}
